<svg xmlns="http://www.w3.org/2000/svg" viewBox="0 0 24 24"><path d="M 7.0019531 5.4355469 C 6.7280781 5.4090469 6.4440625 5.4918125 6.2265625 5.6953125 C 1.9675625 9.6943125 4.0449219 15.042969 4.0449219 15.042969 C 2.4899219 16.085969 0.7689375 17.671984 0.0859375 18.708984 C -0.1900625 19.127984 0.23271875 19.871172 0.88671875 19.701172 L 2.1738281 19.296875 C 2.7518281 19.145875 4.778 19.029484 5.375 19.021484 C 8.966 18.969484 10.397969 19.249719 13.042969 17.761719 C 14.329969 17.037719 14.726016 16.223953 18.166016 16.001953 C 18.812016 15.959953 19.805328 15.963844 20.736328 15.964844 L 20.746094 15.964844 L 20.857422 15.964844 C 20.860422 15.964844 20.861281 15.962891 20.863281 15.962891 C 21.127281 15.959891 21.368344 15.948453 21.527344 15.939453 C 22.841344 15.858453 23.933594 14.883391 23.933594 14.400391 C 23.934594 14.048391 23.741891 13.853109 23.462891 13.787109 C 22.797891 13.629109 21.895297 13.467703 21.154297 12.845703 C 21.135297 12.829703 21.138437 12.837469 21.148438 12.855469 C 20.327437 12.259469 19.084219 12.0455 17.699219 12.4375 C 16.669219 12.7285 16.177172 13.005859 15.451172 13.005859 L 14.498047 12.996094 C 13.555047 12.988094 12.670375 12.53925 12.109375 11.78125 L 7.7167969 5.8378906 C 7.5397969 5.5983906 7.2758281 5.4620469 7.0019531 5.4355469 z M 14.9375 6.1132812 C 14.857916 6.1164941 14.776187 6.1275156 14.695312 6.1503906 C 13.659313 6.4443906 12.66975 7.0906406 11.84375 8.0566406 L 13.716797 10.589844 C 13.903797 10.842844 14.201672 10.993094 14.513672 10.996094 C 14.513672 10.996094 15.667281 11.005859 15.988281 11.005859 L 15.988281 7.1152344 C 15.988281 6.5272344 15.494588 6.090791 14.9375 6.1132812 z"></path></svg>