<svg xmlns="http://www.w3.org/2000/svg" viewBox="0 0 50 50"><path d="M 8.6875 5.03125 C 7.738281 5.03125 6.78125 5.109375 5.875 5.21875 C 5.554688 5.257813 5.28125 5.4375 5.125 5.71875 C 4.96875 6 4.957031 6.335938 5.09375 6.625 C 5.527344 7.539063 5.980469 8.363281 6.4375 9.09375 C 7.332031 9.042969 8.320313 9 9.40625 9 C 15.355469 9 20.914063 10.492188 27.34375 12.21875 L 27.53125 12.28125 C 27.828125 12.359375 28.105469 12.417969 28.40625 12.5 C 28.601563 12.285156 28.820313 12.03125 28.96875 11.84375 C 24.515625 9.042969 16.753906 5.03125 8.6875 5.03125 Z M 37 7 C 32.988281 7 31.617188 10.632813 31.03125 12.1875 C 30.972656 12.347656 30.925781 12.511719 30.90625 12.5625 C 30.6875 13 30.097656 13.636719 29.625 14.15625 C 29.410156 14.390625 29.242188 14.578125 29.09375 14.75 C 28.320313 14.546875 27.554688 14.355469 26.8125 14.15625 C 20.519531 12.464844 15.089844 11 9.40625 11 C 3.609375 11 0.804688 11.898438 0.6875 11.9375 C 0.371094 12.042969 0.121094 12.304688 0.03125 12.625 C -0.0585938 12.945313 0.03125 13.308594 0.25 13.5625 C 5.6875 19.910156 16.082031 24.09375 19.28125 24.6875 C 20.097656 24.863281 20.957031 24.9375 21.8125 24.9375 C 23.320313 24.9375 24.644531 24.675781 25.65625 24.375 C 25.085938 27.578125 25.90625 31.148438 26.09375 31.90625 L 26 44 C 25.996094 44.285156 26.101563 44.558594 26.3125 44.75 C 26.542969 44.960938 27.894531 46 31.59375 46 C 34.835938 46 36.703125 43.722656 36.78125 43.625 C 37.003906 43.34375 37.070313 42.957031 36.9375 42.625 L 33 32.6875 C 34.609375 31.25 39 26.851563 39 21.5 C 39 19.835938 38.828125 17.949219 38.71875 17.09375 C 38.851563 16.941406 39.167969 16.691406 39.40625 16.5 C 40.355469 15.742188 41.78125 14.589844 42 12.625 C 42.105469 11.832031 42.597656 11.003906 42.9375 10.53125 C 43.117188 10.507813 43.234375 10.511719 43.5 10.46875 C 44.605469 10.292969 46.441406 10 49 10 C 49.554688 10 50 9.550781 50 9 C 50 8.449219 49.554688 8 49 8 C 46.28125 8 44.273438 8.328125 43.1875 8.5 C 42.871094 8.550781 42.507813 8.59375 42.40625 8.59375 C 42.144531 8.59375 41.796875 8.394531 41.34375 8.15625 C 40.414063 7.664063 39.132813 7 37 7 Z M 37.5 10.5 C 37.832031 10.5 38.09375 10.761719 38.09375 11.09375 C 38.09375 11.425781 37.832031 11.6875 37.5 11.6875 C 37.167969 11.6875 36.90625 11.425781 36.90625 11.09375 C 36.90625 10.761719 37.167969 10.5 37.5 10.5 Z"></path></svg>